<svg width="51.000000" height="46.000000" viewBox="0 0 51 46" fill="none" xmlns="http://www.w3.org/2000/svg" xmlns:xlink="http://www.w3.org/1999/xlink">
	<desc>
			Created with Pixso.
	</desc>
	<defs>
		<clipPath id="clip31_1620">
			<rect id="IMAGE" rx="0.000000" width="50.000000" height="45.000000" transform="translate(0.500000 0.500000)" fill="white" fill-opacity="0"/>
		</clipPath>
	</defs>
	<g clip-path="url(#clip31_1620)">
		<path id="Vector" d="M20.37 45.96L20.37 24.06L10.91 24.06C10.91 20.56 11.57 17.62 12.91 15.25C14.25 12.78 16.74 10.94 20.37 9.7L20.37 0.32C17.41 0.7 14.63 1.6 12.05 3.02C9.57 4.35 7.42 6.05 5.6 8.14C3.78 10.22 2.35 12.64 1.3 15.39C0.34 18.14 -0.09 21.08 0.01 24.2L0.01 45.96L20.37 45.96ZM50.91 45.96L50.91 24.06L41.45 24.06C41.45 20.56 42.12 17.62 43.46 15.25C44.79 12.78 47.28 10.94 50.91 9.7L50.91 0.32C47.95 0.7 45.18 1.6 42.59 3.02C40.11 4.35 37.96 6.05 36.14 8.14C34.33 10.22 32.89 12.64 31.84 15.39C30.88 18.14 30.45 21.08 30.55 24.2L30.55 45.96L50.91 45.96Z" fill="#FFFFFF" fill-opacity="1.000000" fill-rule="nonzero"/>
	</g>
</svg>
